<mxfile host="app.diagrams.net" agent="Mozilla/5.0 (Macintosh; Intel Mac OS X 10_15_7) AppleWebKit/537.36 (KHTML, like Gecko) Chrome/126.0.0.0 Safari/537.36" version="24.7.5">
  <diagram name="Page-1" id="-xR-jfWQP4zF7vphYe8y">
    <mxGraphModel dx="1559" dy="708" grid="1" gridSize="10" guides="1" tooltips="1" connect="1" arrows="1" fold="1" page="1" pageScale="1" pageWidth="850" pageHeight="1100" math="1" shadow="0">
      <root>
        <mxCell id="0" />
        <mxCell id="1" parent="0" />
        <mxCell id="TkJeqCvFJIjOYNM9dAF7-1" value="\(V(\cdot; \theta_1)\)" style="rounded=1;whiteSpace=wrap;html=1;fillColor=#d5e8d4;strokeColor=#82b366;strokeWidth=3;fontSize=25;" parent="1" vertex="1">
          <mxGeometry x="60" y="210" width="120" height="50" as="geometry" />
        </mxCell>
        <mxCell id="_cselBX3uVpOJDiEf7tq-9" value="\(\pi(\cdot; \phi_1)\)" style="rounded=1;whiteSpace=wrap;html=1;fillColor=#ffe6cc;strokeColor=#d79b00;strokeWidth=3;fontSize=25;" parent="1" vertex="1">
          <mxGeometry x="60" y="360" width="120" height="50" as="geometry" />
        </mxCell>
        <mxCell id="_cselBX3uVpOJDiEf7tq-5" value="\(\vdots\)" style="rounded=1;whiteSpace=wrap;html=1;fillColor=#d5e8d4;strokeColor=#82b366;strokeWidth=3;fontSize=25;" parent="1" vertex="1">
          <mxGeometry x="80" y="250" width="120" height="50" as="geometry" />
        </mxCell>
        <mxCell id="_cselBX3uVpOJDiEf7tq-4" value="\(V(\cdot; \theta_n)\)" style="rounded=1;whiteSpace=wrap;html=1;fillColor=#d5e8d4;strokeColor=#82b366;strokeWidth=3;fontSize=25;" parent="1" vertex="1">
          <mxGeometry x="110" y="290" width="120" height="50" as="geometry" />
        </mxCell>
        <mxCell id="_cselBX3uVpOJDiEf7tq-7" value="\(\vdots\)" style="rounded=1;whiteSpace=wrap;html=1;fillColor=#ffe6cc;strokeColor=#d79b00;strokeWidth=3;fontSize=25;" parent="1" vertex="1">
          <mxGeometry x="80" y="400" width="120" height="50" as="geometry" />
        </mxCell>
        <mxCell id="_cselBX3uVpOJDiEf7tq-8" value="\(\pi(\cdot; \phi_n)\)" style="rounded=1;whiteSpace=wrap;html=1;fillColor=#ffe6cc;strokeColor=#d79b00;strokeWidth=3;fontSize=25;" parent="1" vertex="1">
          <mxGeometry x="110" y="440" width="120" height="50" as="geometry" />
        </mxCell>
        <mxCell id="_cselBX3uVpOJDiEf7tq-40" value="&lt;font style=&quot;font-size: 25px;&quot;&gt;No parameter sharing&lt;/font&gt;" style="text;html=1;align=center;verticalAlign=middle;whiteSpace=wrap;rounded=0;" parent="1" vertex="1">
          <mxGeometry x="20" y="120" width="250" height="60" as="geometry" />
        </mxCell>
        <mxCell id="_cselBX3uVpOJDiEf7tq-41" value="&lt;font style=&quot;font-size: 25px;&quot;&gt;Parameter sharing&lt;/font&gt;" style="text;html=1;align=center;verticalAlign=middle;whiteSpace=wrap;rounded=0;" parent="1" vertex="1">
          <mxGeometry x="320" y="120" width="270" height="60" as="geometry" />
        </mxCell>
        <mxCell id="_cselBX3uVpOJDiEf7tq-42" value="&lt;font style=&quot;font-size: 25px;&quot;&gt;Value functions&lt;/font&gt;" style="text;html=1;align=center;verticalAlign=middle;whiteSpace=wrap;rounded=0;" parent="1" vertex="1">
          <mxGeometry x="-220" y="245" width="180" height="60" as="geometry" />
        </mxCell>
        <mxCell id="_cselBX3uVpOJDiEf7tq-43" value="&lt;font style=&quot;font-size: 25px;&quot;&gt;Policies&lt;/font&gt;" style="text;html=1;align=center;verticalAlign=middle;whiteSpace=wrap;rounded=0;" parent="1" vertex="1">
          <mxGeometry x="-220" y="395" width="180" height="60" as="geometry" />
        </mxCell>
        <mxCell id="TkJeqCvFJIjOYNM9dAF7-5" value="\(V(\cdot; \theta)\)" style="rounded=1;whiteSpace=wrap;html=1;fillColor=#d5e8d4;strokeColor=#82b366;strokeWidth=3;fontSize=25;" parent="1" vertex="1">
          <mxGeometry x="395" y="250" width="120" height="50" as="geometry" />
        </mxCell>
        <mxCell id="TkJeqCvFJIjOYNM9dAF7-7" value="\(\pi(\cdot; \phi)\)" style="rounded=1;whiteSpace=wrap;html=1;fillColor=#ffe6cc;strokeColor=#d79b00;strokeWidth=3;fontSize=25;" parent="1" vertex="1">
          <mxGeometry x="395" y="400" width="120" height="50" as="geometry" />
        </mxCell>
      </root>
    </mxGraphModel>
  </diagram>
</mxfile>
